<?xml version="1.0" encoding="UTF-8" standalone="no"?>
<!-- Generator: Adobe Illustrator 21.0.1, SVG Export Plug-In . SVG Version: 6.00 Build 0)  -->

<svg
   xmlns:dc="http://purl.org/dc/elements/1.1/"
   xmlns:cc="http://creativecommons.org/ns#"
   xmlns:rdf="http://www.w3.org/1999/02/22-rdf-syntax-ns#"
   xmlns:svg="http://www.w3.org/2000/svg"
   xmlns="http://www.w3.org/2000/svg"
   xmlns:sodipodi="http://sodipodi.sourceforge.net/DTD/sodipodi-0.dtd"
   xmlns:inkscape="http://www.inkscape.org/namespaces/inkscape"
   version="1.1"
   id="Layer_1"
   x="0px"
   y="0px"
   viewBox="0 0 736 255"
   xml:space="preserve"
   sodipodi:docname="shopee.svg"
   width="150px"
   height="auto"
   inkscape:version="0.92.3 (2405546, 2018-03-11)"><metadata
   id="metadata29"><rdf:RDF><cc:Work
       rdf:about=""><dc:format>image/svg+xml</dc:format><dc:type
         rdf:resource="http://purl.org/dc/dcmitype/StillImage" /><dc:title></dc:title></cc:Work></rdf:RDF></metadata><defs
   id="defs27" /><sodipodi:namedview
   pagecolor="#ffffff"
   bordercolor="#666666"
   borderopacity="1"
   objecttolerance="10"
   gridtolerance="10"
   guidetolerance="10"
   inkscape:pageopacity="0"
   inkscape:pageshadow="2"
   inkscape:window-width="1366"
   inkscape:window-height="745"
   id="namedview25"
   showgrid="false"
   inkscape:zoom="0.1775"
   inkscape:cx="338.23918"
   inkscape:cy="191.74856"
   inkscape:window-x="-8"
   inkscape:window-y="-8"
   inkscape:window-maximized="1"
   inkscape:current-layer="g857" />
<style
   type="text/css"
   id="style2">
	.st0{fill:#F0592D;}
	.st1{fill:#F2705B;}
	.st2{fill:#FFFFFF;}
</style>



<g
   id="g846"
   style="fill:#fff;fill-opacity:1"
   transform="translate(0,-195)"><g
     id="g857"><g
       id="g867"
       transform="translate(-18,116)"><path
         style="fill:#fff;fill-opacity:1"
         d="m 125.07031,79.369141 c -0.62759,-0.0075 -1.25234,0.0031 -1.87109,0.03125 -22.2,1.1 -44.600001,24.698829 -45.500001,67.798829 h -51.5 c -4,0 -7.199219,3.20117 -7.199219,7.20117 l 9.599609,145.29883 c 0,4 10.69961,22.30117 27.59961,22.20117 H 196 c 24.5,-3.8 27.59961,-24.30078 27.59961,-28.30078 l 8.80078,-139.19922 c -0.1,-4 -3.40039,-7.20117 -7.40039,-7.20117 H 173.5 C 167.88125,97.211719 144.52573,79.602719 125.07031,79.369141 Z m 0.18164,12.009765 c 14.07308,0.236511 31.30469,14.842184 36.14844,55.820314 H 89.800781 c 0.8,-35.2 17.999609,-54.998829 34.099609,-55.798829 0.44688,-0.02187 0.89759,-0.02911 1.35156,-0.02148 z m 0.66016,80.255864 c 10.69936,-0.12569 21.45039,3.31484 28.08789,10.96484 5.1,5.8 -3.4,14.4 -8.5,8.5 -9.5,-10.9 -32.09922,-9.39922 -40.69922,1.80078 -12.199999,16.1 6.09844,24.69961 18.89844,28.59961 17.6,5.3 37.10078,15.09922 40.30078,35.19922 2.6,16.3 -9.99961,31.40039 -25.59961,34.40039 -16.7,3.2 -38.20039,-2.40039 -49.90039,-14.90039 -5.3,-5.7 3.2,-14.2 8.5,-8.5 7.9,8.5 21.90078,12.40156 33.30078,12.10156 14.6,-0.3 27.49883,-13.60039 19.29883,-28.40039 -11.4,-20.5 -39.69922,-14.70078 -54.199219,-30.80078 -11.7,-13 -6.200391,-33.4 7.599609,-42.5 6.3,-4.1125 14.59038,-6.36709 22.91211,-6.46484 z"
         id="path4"
         inkscape:connector-curvature="0" /><g
         transform="translate(-30)"
         id="g22"
         style="fill:#fff;fill-opacity:1">
	<path
   inkscape:connector-curvature="0"
   id="path10"
   d="m 360.7,185.1 c -11.8,-13.4 -36.6,-13.8 -51,-4.4 -13.8,9 -19.3,29.2 -7.6,42.1 14.5,16 42.7,10.3 54.2,30.6 8.3,14.7 -4.7,27.8 -19.2,28.1 -11.4,0.3 -25.4,-3.7 -33.3,-12.1 -5.3,-5.6 -13.8,2.8 -8.5,8.4 11.7,12.4 33.2,18 49.8,14.8 15.6,-3 28.2,-18 25.6,-34.1 -3.2,-20 -22.7,-29.6 -40.3,-34.9 -12.8,-3.8 -31.1,-12.4 -18.9,-28.3 8.6,-11.2 31.1,-12.6 40.7,-1.8 5.1,5.9 13.6,-2.6 8.5,-8.4 z"
   class="st1"
   style="fill:#fff;fill-opacity:1" />
	<path
   inkscape:connector-curvature="0"
   id="path12"
   d="m 445.3,245.8 v 41.8 c 0,7.9 -12,7.9 -12,0 v -41 c -0.4,-8.1 -7.1,-11.8 -7.3,-11.9 -8.6,-3.8 -24.1,-2.1 -33.4,10 v 42.9 c 0,7.9 -12,7.9 -12,0 V 180.2 c 0,-7.9 12,-7.9 12,0 v 48.3 c 14.8,-10.2 33.6,-9 42.4,-2.8 -0.1,-0.1 10.5,5.9 10.3,20.1 z"
   class="st1"
   style="fill:#fff;fill-opacity:1" />
	<path
   inkscape:connector-curvature="0"
   id="path14"
   d="m 702.8,257.4 c -0.3,-16.5 -8.7,-31.3 -26.2,-34.6 -15,-2.8 -32.6,5.1 -39,19.2 -6.7,14.6 -3.9,34.7 9.3,44.9 14.2,11 36.3,7.6 50.9,-0.5 6.8,-3.8 0.7,-14.2 -6.1,-10.4 -9.2,5.2 -21.3,7.7 -31.6,4.3 -7.7,-2.6 -12.1,-9.3 -13.4,-16.7 h 50.1 c 3.2,-0.2 6.1,-2.9 6,-6.2 z m -55.7,-6 c 0.1,-0.5 0.2,-0.9 0.3,-1.3 2.9,-9.8 12.7,-15.5 22.7,-15.8 11.5,-0.3 17.9,7.6 19.9,17.1 z"
   class="st1"
   style="fill:#fff;fill-opacity:1" />
	<path
   inkscape:connector-curvature="0"
   id="path16"
   d="m 783,257.3 c -0.3,-16.5 -8.7,-31.3 -26.2,-34.6 -15,-2.8 -32.6,5.1 -39,19.2 -6.7,14.6 -3.9,34.7 9.3,44.9 14.2,11 36.3,7.6 50.9,-0.5 6.8,-3.8 0.7,-14.2 -6.1,-10.4 -9.2,5.2 -21.3,7.7 -31.6,4.3 -7.7,-2.6 -12.1,-9.3 -13.4,-16.7 H 777 c 3.2,-0.2 6,-2.9 6,-6.2 z m -55.7,-6 c 0.1,-0.5 0.2,-0.9 0.3,-1.3 2.9,-9.8 12.7,-15.5 22.7,-15.8 11.5,-0.3 17.9,7.6 19.9,17.1 z"
   class="st1"
   style="fill:#fff;fill-opacity:1" />
	<path
   inkscape:connector-curvature="0"
   id="path18"
   d="m 495.3,293.8 c -19.7,0 -35.8,-16.1 -35.8,-35.8 0,-19.7 16.1,-35.8 35.8,-35.8 19.7,0 35.8,16.1 35.8,35.8 0,19.8 -16.1,35.8 -35.8,35.8 z m 0,-58.7 c -12.6,0 -22.9,10.3 -22.9,22.9 0,12.6 10.3,22.9 22.9,22.9 12.6,0 22.9,-10.3 22.9,-22.9 -0.1,-12.6 -10.3,-22.9 -22.9,-22.9 z"
   class="st1"
   style="fill:#fff;fill-opacity:1" />
	<path
   inkscape:connector-curvature="0"
   id="path20"
   d="m 584.1,222.2 c -10.6,0 -20.2,4.7 -26.7,12 v -8.6 c 0,-7.7 -12,-7.8 -12,0 v 101.2 c 0,7.8 12,7.8 12,0 v -45.1 c 6.6,7.4 16.1,12 26.7,12 19.7,0 35.8,-16 35.8,-35.8 0,-19.6 -16,-35.7 -35.8,-35.7 z m 0,58.7 c -12.6,0 -22.9,-10.3 -22.9,-22.9 0,-11.3 8.3,-20.8 19.2,-22.6 0,0 0.1,0 0.2,0 1.1,-0.2 2.3,-0.3 3.5,-0.3 9.3,0 17.4,5.6 20.9,13.7 0,0 0,0.1 0,0.1 1.2,2.8 1.9,5.9 1.9,9.1 0.1,12.6 -10.2,22.9 -22.8,22.9 z"
   class="st1"
   style="fill:#fff;fill-opacity:1" />
</g></g></g></g>
</svg>